<?xml version="1.0" encoding="UTF-8" standalone="no"?>
<svg
   xmlns:dc="http://purl.org/dc/elements/1.1/"
   xmlns:cc="http://creativecommons.org/ns#"
   xmlns:rdf="http://www.w3.org/1999/02/22-rdf-syntax-ns#"
   xmlns:svg="http://www.w3.org/2000/svg"
   xmlns="http://www.w3.org/2000/svg"
   xmlns:sodipodi="http://sodipodi.sourceforge.net/DTD/sodipodi-0.dtd"
   xmlns:inkscape="http://www.inkscape.org/namespaces/inkscape"
   version="1.1"
   style="font-size:12px;font-family:'lucida grande', 'lucida sans unicode', arial, helvetica, sans-serif"
   width="530.67328"
   height="336.11676"
   id="svg95"
   sodipodi:docname="chart_anger.svg"
   inkscape:version="0.92.3 (2405546, 2018-03-11)">
  <metadata
     id="metadata99">
    <rdf:RDF>
      <cc:Work
         rdf:about="">
        <dc:format>image/svg+xml</dc:format>
        <dc:type
           rdf:resource="http://purl.org/dc/dcmitype/StillImage" />
        <dc:title></dc:title>
      </cc:Work>
    </rdf:RDF>
  </metadata>
  <sodipodi:namedview
     pagecolor="#ffffff"
     bordercolor="#666666"
     borderopacity="1"
     objecttolerance="10"
     gridtolerance="10"
     guidetolerance="10"
     inkscape:pageopacity="0"
     inkscape:pageshadow="2"
     inkscape:window-width="1920"
     inkscape:window-height="1032"
     id="namedview97"
     showgrid="false"
     inkscape:zoom="0.465"
     inkscape:cx="-158.72101"
     inkscape:cy="68.455665"
     inkscape:window-x="0"
     inkscape:window-y="24"
     inkscape:window-maximized="1"
     inkscape:current-layer="g65"
     fit-margin-top="0"
     fit-margin-left="0"
     fit-margin-right="0"
     fit-margin-bottom="0" />
  <desc
     id="desc2">Created with Highcharts 4.2.7</desc>
  <defs
     id="defs7">
    <clipPath
       id="highcharts-59">
      <rect
         x="1"
         y="1"
         width="578"
         height="341"
         id="rect4" />
    </clipPath>
  </defs>
  <g
     class="highcharts-series-group"
     id="g27"
     transform="translate(-56.650926,-44.848644)">
    <g
       class="highcharts-series highcharts-series-0"
       transform="translate(10,42)"
       id="g23">
      <path
         d="M 314.97271,35.000003 A 134,134 0 0 1 446.92996,145.53757 L 315,169 Z"
         id="path13"
         inkscape:connector-curvature="0"
         style="fill:#a4c362;stroke:#ffffff;stroke-width:1;stroke-linejoin:round" />
      <path
         d="M 446.95336,145.66951 A 134,134 0 0 1 360.92267,294.8853 L 315,169 Z"
         id="path15"
         inkscape:connector-curvature="0"
         style="fill:#e58f40;stroke:#ffffff;stroke-width:1;stroke-linejoin:round" />
      <path
         d="m 360.79676,294.93116 a 134,134 0 0 1 -91.51888,0.0271 L 315,169 Z"
         id="path17"
         inkscape:connector-curvature="0"
         style="fill:#dfc400;stroke:#ffffff;stroke-width:1;stroke-linejoin:round" />
      <path
         d="M 269.15195,294.91249 A 134,134 0 0 1 228.73747,66.45842 L 315,169 Z"
         id="path19"
         inkscape:connector-curvature="0"
         style="fill:#50b8c1;stroke:#ffffff;stroke-width:1;stroke-linejoin:round" />
      <path
         d="M 228.84005,66.372208 A 134,134 0 0 1 314.81388,35.000129 L 315,169 Z"
         id="path21"
         inkscape:connector-curvature="0"
         style="fill:#6d73be;stroke:#ffffff;stroke-width:1;stroke-linejoin:round" />
    </g>
    <g
       class="highcharts-markers highcharts-series-0"
       transform="translate(10,42)"
       id="g25" />
  </g>
  <g
     class="highcharts-data-labels highcharts-series-0"
     transform="translate(-46.650926,-2.8486433)"
     id="g73"
     style="opacity:1">
    <path
       d="m 424.91717,42.868711 c -5,0 -10.1423,6.128356 -17.21297,14.554845 l -7.07066,8.426489"
       id="path33"
       inkscape:connector-curvature="0"
       style="fill:none;stroke:#a4c362;stroke-width:1" />
    <path
       d="m 461.52817,250.5 c -5,0 -11.92821,-4 -21.45449,-9.5 l -9.52628,-5.5"
       id="path35"
       inkscape:connector-curvature="0"
       style="fill:none;stroke:#e58f40;stroke-width:1" />
    <path
       d="m 319.5,332.5 c -5,0 -5,-8 -5,-19 v -11"
       id="path37"
       inkscape:connector-curvature="0"
       style="fill:none;stroke:#dfc400;stroke-width:1" />
    <path
       d="m 159.01631,194.19757 c 5,0 12.87846,1.68401 23.71135,3.99955 l 10.83288,2.31553"
       id="path39"
       inkscape:connector-curvature="0"
       style="fill:none;stroke:#50b8c1;stroke-width:1.10101688" />
    <path
       d="m 253.4087,14.39041 c 5,0 7.73616,7.517541 11.49838,17.85416 l 3.76222,10.336619"
       id="path41"
       inkscape:connector-curvature="0"
       style="fill:none;stroke:#6d73be;stroke-width:1" />
    <g
       transform="translate(395.02482,19.314063)"
       id="g47">
      <text
         x="37.573006"
         style="color:#000000;font-style:normal;font-variant:normal;font-weight:normal;font-stretch:normal;font-size:20px;font-family:'Roboto Mono';-inkscape-font-specification:'Roboto Mono, Normal';font-variant-ligatures:normal;font-variant-caps:normal;font-variant-numeric:normal;font-feature-settings:normal;text-align:start;writing-mode:lr-tb;text-anchor:start;fill:#000000"
         y="24.807871"
         id="text45">
        <tspan
           sodipodi:role="line"
           id="tspan4904"
           x="37.573006"
           y="24.807871">2 - 22.2%</tspan>
      </text>
    </g>
    <g
       transform="translate(482.96693,242.90082)"
       id="g53">
      <text
         x="-13.162228"
         style="color:#000000;font-style:normal;font-variant:normal;font-weight:normal;font-stretch:normal;font-size:20px;font-family:'Roboto Mono';-inkscape-font-specification:'Roboto Mono, Normal';font-variant-ligatures:normal;font-variant-caps:normal;font-variant-numeric:normal;font-feature-settings:normal;text-align:start;writing-mode:lr-tb;text-anchor:start;fill:#000000"
         y="17.672346"
         id="text51">
        <tspan
           sodipodi:role="line"
           id="tspan4910"
           x="-13.162228"
           y="17.672346">2 - 22.2%</tspan>
      </text>
    </g>
    <g
       transform="translate(319.67769,323.76033)"
       id="g59">
      <text
         x="5"
         style="color:#000000;font-style:normal;font-variant:normal;font-weight:normal;font-stretch:normal;font-size:20px;font-family:'Roboto Mono';-inkscape-font-specification:'Roboto Mono, Normal';font-variant-ligatures:normal;font-variant-caps:normal;font-variant-numeric:normal;font-feature-settings:normal;text-align:start;writing-mode:lr-tb;text-anchor:start;fill:#000000"
         y="15"
         id="text57">
        <tspan
           sodipodi:role="line"
           id="tspan4912"
           x="5"
           y="15">1 - 11.1%</tspan>
      </text>
    </g>
    <g
       transform="translate(23.033073,187)"
       id="g65">
      <text
         x="22.699884"
         style="color:#000000;font-style:normal;font-variant:normal;font-weight:normal;font-stretch:normal;font-size:20px;font-family:'Roboto Mono';-inkscape-font-specification:'Roboto Mono, Normal';font-variant-ligatures:normal;font-variant-caps:normal;font-variant-numeric:normal;font-feature-settings:normal;text-align:start;writing-mode:lr-tb;text-anchor:start;fill:#000000"
         y="11.121934"
         id="text63">
        <tspan
           sodipodi:role="line"
           id="tspan4914"
           x="22.699884"
           y="11.121934">3 - 33.3%</tspan>
      </text>
    </g>
    <g
       transform="translate(70.38837,4)"
       id="g71">
      <text
         x="68.04567"
         style="color:#000000;font-style:normal;font-variant:normal;font-weight:normal;font-stretch:normal;font-size:20px;font-family:'Roboto Mono';-inkscape-font-specification:'Roboto Mono, Normal';font-variant-ligatures:normal;font-variant-caps:normal;font-variant-numeric:normal;font-feature-settings:normal;text-align:start;writing-mode:lr-tb;text-anchor:start;fill:#000000"
         y="13.272471"
         id="text69">
        <tspan
           sodipodi:role="line"
           id="tspan4902"
           x="68.04567"
           y="13.272471">1 - 11.1%</tspan>
      </text>
    </g>
  </g>
  <g
     class="highcharts-legend"
     id="g79"
     transform="translate(-56.650926,-44.848644)">
    <g
       id="g77">
      <g
         id="g75" />
    </g>
  </g>
  <g
     class="highcharts-tooltip"
     display="none"
     style="white-space:nowrap;display:none"
     id="g91"
     transform="translate(-56.650926,-44.848644)">
    <path
       d="m 3.5,0.5 h 10 c 3,0 3,0 3,3 v 10 c 0,3 0,3 -3,3 h -10 c -3,0 -3,0 -3,-3 v -10 c 0,-3 0,-3 3,-3"
       transform="translate(1,1)"
       id="path81"
       inkscape:connector-curvature="0"
       style="fill:none;stroke:#000000;stroke-width:5;stroke-opacity:0.05" />
    <path
       d="m 3.5,0.5 h 10 c 3,0 3,0 3,3 v 10 c 0,3 0,3 -3,3 h -10 c -3,0 -3,0 -3,-3 v -10 c 0,-3 0,-3 3,-3"
       transform="translate(1,1)"
       id="path83"
       inkscape:connector-curvature="0"
       style="fill:none;stroke:#000000;stroke-width:3;stroke-opacity:0.1" />
    <path
       d="m 3.5,0.5 h 10 c 3,0 3,0 3,3 v 10 c 0,3 0,3 -3,3 h -10 c -3,0 -3,0 -3,-3 v -10 c 0,-3 0,-3 3,-3"
       transform="translate(1,1)"
       id="path85"
       inkscape:connector-curvature="0"
       style="fill:none;stroke:#000000;stroke-width:1;stroke-opacity:0.15" />
    <path
       d="m 3.5,0.5 h 10 c 3,0 3,0 3,3 v 10 c 0,3 0,3 -3,3 h -10 c -3,0 -3,0 -3,-3 v -10 c 0,-3 0,-3 3,-3"
       id="path87"
       inkscape:connector-curvature="0"
       style="fill:#f9f9f9;fill-opacity:0.85" />
    <text
       x="8"
       style="color:#000000;font-size:12px;fill:#000000"
       y="20"
       id="text89" />
  </g>
</svg>
