<?xml version="1.0" encoding="UTF-8" standalone="no"?>
<svg
   xmlns:dc="http://purl.org/dc/elements/1.1/"
   xmlns:cc="http://creativecommons.org/ns#"
   xmlns:rdf="http://www.w3.org/1999/02/22-rdf-syntax-ns#"
   xmlns:svg="http://www.w3.org/2000/svg"
   xmlns="http://www.w3.org/2000/svg"
   xmlns:sodipodi="http://sodipodi.sourceforge.net/DTD/sodipodi-0.dtd"
   xmlns:inkscape="http://www.inkscape.org/namespaces/inkscape"
   version="1.1"
   style="font-size:12px;font-family:'lucida grande', 'lucida sans unicode', arial, helvetica, sans-serif"
   width="506.54935"
   height="294.48166"
   id="svg95"
   sodipodi:docname="chart_happiness.svg"
   inkscape:version="0.92.3 (2405546, 2018-03-11)">
  <metadata
     id="metadata99">
    <rdf:RDF>
      <cc:Work
         rdf:about="">
        <dc:format>image/svg+xml</dc:format>
        <dc:type
           rdf:resource="http://purl.org/dc/dcmitype/StillImage" />
        <dc:title></dc:title>
      </cc:Work>
    </rdf:RDF>
  </metadata>
  <sodipodi:namedview
     pagecolor="#ffffff"
     bordercolor="#666666"
     borderopacity="1"
     objecttolerance="10"
     gridtolerance="10"
     guidetolerance="10"
     inkscape:pageopacity="0"
     inkscape:pageshadow="2"
     inkscape:window-width="1920"
     inkscape:window-height="1032"
     id="namedview97"
     showgrid="false"
     inkscape:zoom="0.6576093"
     inkscape:cx="-225.02648"
     inkscape:cy="103.59449"
     inkscape:window-x="0"
     inkscape:window-y="24"
     inkscape:window-maximized="1"
     inkscape:current-layer="g65"
     fit-margin-top="0"
     fit-margin-left="0"
     fit-margin-right="0"
     fit-margin-bottom="0" />
  <desc
     id="desc2">Created with Highcharts 4.2.7</desc>
  <defs
     id="defs7">
    <clipPath
       id="highcharts-43">
      <rect
         x="1"
         y="1"
         width="578"
         height="341"
         id="rect4" />
    </clipPath>
  </defs>
  <g
     class="highcharts-series-group"
     id="g27"
     transform="translate(-94.909123,-58.576172)">
    <g
       class="highcharts-series highcharts-series-0"
       transform="translate(10,42)"
       id="g23">
      <path
         d="m 315.97281,43.500003 a 133.5,133.5 0 0 1 94.36912,39.044446 L 316,177 Z"
         id="path13"
         inkscape:connector-curvature="0"
         style="fill:#a4c362;stroke:#ffffff;stroke-width:1;stroke-linejoin:round" />
      <path
         d="m 410.43633,82.638838 a 133.5,133.5 0 0 1 0.0943,188.627842 L 316,177 Z"
         id="path15"
         inkscape:connector-curvature="0"
         style="fill:#e58f40;stroke:#ffffff;stroke-width:1;stroke-linejoin:round" />
      <path
         d="m 410.43633,271.36116 a 133.5,133.5 0 0 1 0.0943,-0.0945 L 316,177 Z"
         id="path17"
         inkscape:connector-curvature="0"
         style="fill:#dfc400;stroke:#ffffff;stroke-width:1;stroke-linejoin:round" />
      <path
         d="M 410.43633,271.36116 A 133.5,133.5 0 1 1 221.50776,82.694823 L 316,177 Z"
         id="path19"
         inkscape:connector-curvature="0"
         style="fill:#50b8c1;stroke:#ffffff;stroke-width:1;stroke-linejoin:round" />
      <path
         d="M 221.60211,82.600378 A 133.5,133.5 0 0 1 315.81457,43.500129 L 316,177 Z"
         id="path21"
         inkscape:connector-curvature="0"
         style="fill:#6d73be;stroke:#ffffff;stroke-width:1;stroke-linejoin:round" />
    </g>
    <g
       class="highcharts-markers highcharts-series-0"
       transform="translate(10,42)"
       id="g25" />
  </g>
  <g
     class="highcharts-data-labels highcharts-series-0"
     transform="translate(-84.909123,-16.576172)"
     id="g73"
     style="opacity:1">
    <path
       d="m 383.56874,25.945696 c -5,0 -8.06147,7.391037 -12.27098,17.553712 l -4.20952,10.162674"
       id="path33"
       inkscape:connector-curvature="0"
       style="fill:none;stroke:#a4c362;stroke-width:1" />
    <path
       d="m 195.38804,292.61196 c 5,0 10.65686,-5.65686 18.43503,-13.43503 l 7.77817,-7.77817"
       id="path39"
       inkscape:connector-curvature="0"
       style="fill:none;stroke:#50b8c1;stroke-width:1" />
    <path
       d="m 248.43126,25.945696 c 5,0 8.06147,7.391037 12.27098,17.553712 l 4.20952,10.162674"
       id="path41"
       inkscape:connector-curvature="0"
       style="fill:none;stroke:#6d73be;stroke-width:1" />
    <g
       transform="translate(381.47312,21.376345)"
       id="g47">
      <text
         x="5"
         style="color:#000000;font-style:normal;font-variant:normal;font-weight:normal;font-stretch:normal;font-size:20px;font-family:'Roboto Mono';-inkscape-font-specification:'Roboto Mono, Normal';font-variant-ligatures:normal;font-variant-caps:normal;font-variant-numeric:normal;font-feature-settings:normal;text-align:start;writing-mode:lr-tb;text-anchor:start;fill:#000000"
         y="10.438021"
         id="text45">
        <tspan
           sodipodi:role="line"
           id="tspan4877"
           x="5"
           y="10.438021">1 - 12.5%</tspan>
      </text>
    </g>
    <g
       transform="translate(478.93893,164.269)"
       id="g53">
      <text
         x="5"
         style="color:#000000;font-style:normal;font-variant:normal;font-weight:normal;font-stretch:normal;font-size:20px;font-family:'Roboto Mono';-inkscape-font-specification:'Roboto Mono, Normal';font-variant-ligatures:normal;font-variant-caps:normal;font-variant-numeric:normal;font-feature-settings:normal;text-align:start;writing-mode:lr-tb;text-anchor:start;fill:#000000"
         y="15"
         id="text51">
        <tspan
           sodipodi:role="line"
           id="tspan4871"
           x="5"
           y="15">2 - 25.0%</tspan>
      </text>
    </g>
    <g
       transform="translate(19.870968,296.44086)"
       id="g65">
      <text
         x="64.305733"
         style="color:#000000;font-style:normal;font-variant:normal;font-weight:normal;font-stretch:normal;font-size:20px;font-family:'Roboto Mono';-inkscape-font-specification:'Roboto Mono, Normal';font-variant-ligatures:normal;font-variant-caps:normal;font-variant-numeric:normal;font-feature-settings:normal;text-align:start;writing-mode:lr-tb;text-anchor:start;fill:#000000"
         y="5.1157117"
         id="text63">
        <tspan
           sodipodi:role="line"
           id="tspan4881"
           x="64.305733"
           y="5.1157117">4 - 50.0%</tspan>
      </text>
    </g>
    <g
       transform="translate(-15.591398,16)"
       id="g71">
      <text
         x="150.98334"
         style="color:#000000;font-style:normal;font-variant:normal;font-weight:normal;font-stretch:normal;font-size:20px;font-family:'Roboto Mono';-inkscape-font-specification:'Roboto Mono, Normal';font-variant-ligatures:normal;font-variant-caps:normal;font-variant-numeric:normal;font-feature-settings:normal;text-align:start;writing-mode:lr-tb;text-anchor:start;fill:#000000"
         y="15"
         id="text69">
        <tspan
           sodipodi:role="line"
           id="tspan4879"
           x="150.98334"
           y="15">1 - 12.5%</tspan>
      </text>
    </g>
    <path
       d="m 479.52584,173.13803 c -3.86986,-3.1661 -10.9195,0.61577 -20.61276,5.81584 l -9.69326,5.20007"
       id="path33-6"
       inkscape:connector-curvature="0"
       style="font-size:12px;font-family:'lucida grande', 'lucida sans unicode', arial, helvetica, sans-serif;opacity:1;fill:none;stroke:#e58f40;stroke-width:1;stroke-opacity:1" />
  </g>
  <g
     class="highcharts-legend"
     id="g79"
     transform="translate(-94.909123,-58.576172)">
    <g
       id="g77">
      <g
         id="g75" />
    </g>
  </g>
  <g
     class="highcharts-tooltip"
     display="none"
     style="white-space:nowrap;display:none"
     id="g91"
     transform="translate(-94.909123,-58.576172)">
    <path
       d="m 3.5,0.5 h 10 c 3,0 3,0 3,3 v 10 c 0,3 0,3 -3,3 h -10 c -3,0 -3,0 -3,-3 v -10 c 0,-3 0,-3 3,-3"
       transform="translate(1,1)"
       id="path81"
       inkscape:connector-curvature="0"
       style="fill:none;stroke:#000000;stroke-width:5;stroke-opacity:0.05" />
    <path
       d="m 3.5,0.5 h 10 c 3,0 3,0 3,3 v 10 c 0,3 0,3 -3,3 h -10 c -3,0 -3,0 -3,-3 v -10 c 0,-3 0,-3 3,-3"
       transform="translate(1,1)"
       id="path83"
       inkscape:connector-curvature="0"
       style="fill:none;stroke:#000000;stroke-width:3;stroke-opacity:0.1" />
    <path
       d="m 3.5,0.5 h 10 c 3,0 3,0 3,3 v 10 c 0,3 0,3 -3,3 h -10 c -3,0 -3,0 -3,-3 v -10 c 0,-3 0,-3 3,-3"
       transform="translate(1,1)"
       id="path85"
       inkscape:connector-curvature="0"
       style="fill:none;stroke:#000000;stroke-width:1;stroke-opacity:0.15" />
    <path
       d="m 3.5,0.5 h 10 c 3,0 3,0 3,3 v 10 c 0,3 0,3 -3,3 h -10 c -3,0 -3,0 -3,-3 v -10 c 0,-3 0,-3 3,-3"
       id="path87"
       inkscape:connector-curvature="0"
       style="fill:#f9f9f9;fill-opacity:0.85" />
    <text
       x="8"
       style="color:#000000;font-size:12px;fill:#000000"
       y="20"
       id="text89" />
  </g>
</svg>
