<?xml version="1.0" encoding="UTF-8" standalone="no"?>
<svg
   xmlns:dc="http://purl.org/dc/elements/1.1/"
   xmlns:cc="http://creativecommons.org/ns#"
   xmlns:rdf="http://www.w3.org/1999/02/22-rdf-syntax-ns#"
   xmlns:svg="http://www.w3.org/2000/svg"
   xmlns="http://www.w3.org/2000/svg"
   xmlns:sodipodi="http://sodipodi.sourceforge.net/DTD/sodipodi-0.dtd"
   xmlns:inkscape="http://www.inkscape.org/namespaces/inkscape"
   version="1.1"
   style="font-size:12px;font-family:'lucida grande', 'lucida sans unicode', arial, helvetica, sans-serif"
   width="551.98059"
   height="293.99542"
   id="svg95"
   sodipodi:docname="chart_sadness.svg"
   inkscape:version="0.92.3 (2405546, 2018-03-11)">
  <metadata
     id="metadata99">
    <rdf:RDF>
      <cc:Work
         rdf:about="">
        <dc:format>image/svg+xml</dc:format>
        <dc:type
           rdf:resource="http://purl.org/dc/dcmitype/StillImage" />
        <dc:title></dc:title>
      </cc:Work>
    </rdf:RDF>
  </metadata>
  <sodipodi:namedview
     pagecolor="#ffffff"
     bordercolor="#666666"
     borderopacity="1"
     objecttolerance="10"
     gridtolerance="10"
     guidetolerance="10"
     inkscape:pageopacity="0"
     inkscape:pageshadow="2"
     inkscape:window-width="1920"
     inkscape:window-height="1032"
     id="namedview97"
     showgrid="false"
     inkscape:zoom="0.92999999"
     inkscape:cx="162.47624"
     inkscape:cy="180.66177"
     inkscape:window-x="0"
     inkscape:window-y="24"
     inkscape:window-maximized="1"
     inkscape:current-layer="g73"
     fit-margin-top="0"
     fit-margin-left="0"
     fit-margin-right="0"
     fit-margin-bottom="0" />
  <desc
     id="desc2">Created with Highcharts 4.2.7</desc>
  <defs
     id="defs7">
    <clipPath
       id="highcharts-51">
      <rect
         x="1"
         y="1"
         width="578"
         height="341"
         id="rect4" />
    </clipPath>
  </defs>
  <g
     class="highcharts-series-group"
     id="g27"
     transform="translate(-56.64504,-51.004588)">
    <g
       class="highcharts-series highcharts-series-0"
       transform="translate(10,42)"
       id="g23">
      <path
         d="m 316.97281,35.500003 a 133.5,133.5 0 1 1 0.1335,266.999957 L 317,169 Z"
         id="path13"
         inkscape:connector-curvature="0"
         style="fill:#a4c362;stroke:#ffffff;stroke-width:1;stroke-linejoin:round" />
      <path
         d="m 316.97281,302.5 a 133.5,133.5 0 0 1 0.1335,-4e-5 L 317,169 Z"
         id="path15"
         inkscape:connector-curvature="0"
         style="fill:#e58f40;stroke:#ffffff;stroke-width:1;stroke-linejoin:round" />
      <path
         d="m 316.97281,302.5 a 133.5,133.5 0 0 1 0.1335,-4e-5 L 317,169 Z"
         id="path17"
         inkscape:connector-curvature="0"
         style="fill:#dfc400;stroke:#ffffff;stroke-width:1;stroke-linejoin:round" />
      <path
         d="M 316.97281,302.5 A 133.5,133.5 0 0 1 222.50776,74.694823 L 317,169 Z"
         id="path19"
         inkscape:connector-curvature="0"
         style="fill:#50b8c1;stroke:#ffffff;stroke-width:1;stroke-linejoin:round" />
      <path
         d="M 222.60211,74.600378 A 133.5,133.5 0 0 1 316.81457,35.500129 L 317,169 Z"
         id="path21"
         inkscape:connector-curvature="0"
         style="fill:#6d73be;stroke:#ffffff;stroke-width:1;stroke-linejoin:round" />
    </g>
    <g
       class="highcharts-markers highcharts-series-0"
       transform="translate(10,42)"
       id="g25" />
  </g>
  <g
     class="highcharts-data-labels highcharts-series-0"
     transform="translate(-46.64504,-9.0045882)"
     id="g73"
     style="opacity:1">
    <path
       d="m 485,168.5 c -5,0 -13,0 -24,0 h -11"
       id="path33"
       inkscape:connector-curvature="0"
       style="fill:none;stroke:#a4c362;stroke-width:1" />
    <path
       d="m 160.4457,231.06874 c 5,0 12.39103,-3.06147 22.55371,-7.27098 l 10.16267,-4.20952"
       id="path39"
       inkscape:connector-curvature="0"
       style="fill:none;stroke:#50b8c1;stroke-width:1" />
    <path
       d="m 248.93126,17.445696 c 5,0 8.06147,7.391037 12.27098,17.553712 l 4.20952,10.162674"
       id="path41"
       inkscape:connector-curvature="0"
       style="fill:none;stroke:#6d73be;stroke-width:1" />
    <g
       transform="translate(486.86643,159.89078)"
       id="g47">
      <text
         x="4.2396703"
         style="color:#000000;font-style:normal;font-variant:normal;font-weight:normal;font-stretch:normal;font-size:20px;font-family:'Roboto Mono';-inkscape-font-specification:'Roboto Mono, Normal';font-variant-ligatures:normal;font-variant-caps:normal;font-variant-numeric:normal;font-feature-settings:normal;text-align:start;writing-mode:lr-tb;text-anchor:start;fill:#000000"
         y="15"
         id="text45">
        <tspan
           sodipodi:role="line"
           id="tspan4840"
           x="4.2396703"
           y="15">4 - 50.0%</tspan>
      </text>
    </g>
    <g
       transform="translate(40.727071,227.64266)"
       id="g65">
      <text
         x="5"
         style="color:#000000;font-style:normal;font-variant:normal;font-weight:normal;font-stretch:normal;font-size:20px;font-family:'Roboto Mono';-inkscape-font-specification:'Roboto Mono, Normal';font-variant-ligatures:normal;font-variant-caps:normal;font-variant-numeric:normal;font-feature-settings:normal;text-align:start;writing-mode:lr-tb;text-anchor:start;fill:#000000"
         y="15"
         id="text63">
        <tspan
           sodipodi:role="line"
           id="tspan4846"
           x="5"
           y="15">3 - 37.5%</tspan>
      </text>
    </g>
    <g
       transform="translate(129.05464,8.4284163)"
       id="g71">
      <text
         x="5"
         style="color:#000000;font-style:normal;font-variant:normal;font-weight:normal;font-stretch:normal;font-size:20px;font-family:'Roboto Mono';-inkscape-font-specification:'Roboto Mono, Normal';font-variant-ligatures:normal;font-variant-caps:normal;font-variant-numeric:normal;font-feature-settings:normal;text-align:start;writing-mode:lr-tb;text-anchor:start;fill:#000000"
         y="15"
         id="text69">
        <tspan
           sodipodi:role="line"
           id="tspan4281"
           x="5"
           y="15">1 - 12.5%</tspan>
      </text>
    </g>
  </g>
  <g
     class="highcharts-legend"
     id="g79"
     transform="translate(-56.64504,-51.004588)">
    <g
       id="g77">
      <g
         id="g75" />
    </g>
  </g>
  <g
     class="highcharts-tooltip"
     display="none"
     style="white-space:nowrap;display:none"
     id="g91"
     transform="translate(-56.64504,-51.004588)">
    <path
       d="m 3.5,0.5 h 10 c 3,0 3,0 3,3 v 10 c 0,3 0,3 -3,3 h -10 c -3,0 -3,0 -3,-3 v -10 c 0,-3 0,-3 3,-3"
       transform="translate(1,1)"
       id="path81"
       inkscape:connector-curvature="0"
       style="fill:none;stroke:#000000;stroke-width:5;stroke-opacity:0.05" />
    <path
       d="m 3.5,0.5 h 10 c 3,0 3,0 3,3 v 10 c 0,3 0,3 -3,3 h -10 c -3,0 -3,0 -3,-3 v -10 c 0,-3 0,-3 3,-3"
       transform="translate(1,1)"
       id="path83"
       inkscape:connector-curvature="0"
       style="fill:none;stroke:#000000;stroke-width:3;stroke-opacity:0.1" />
    <path
       d="m 3.5,0.5 h 10 c 3,0 3,0 3,3 v 10 c 0,3 0,3 -3,3 h -10 c -3,0 -3,0 -3,-3 v -10 c 0,-3 0,-3 3,-3"
       transform="translate(1,1)"
       id="path85"
       inkscape:connector-curvature="0"
       style="fill:none;stroke:#000000;stroke-width:1;stroke-opacity:0.15" />
    <path
       d="m 3.5,0.5 h 10 c 3,0 3,0 3,3 v 10 c 0,3 0,3 -3,3 h -10 c -3,0 -3,0 -3,-3 v -10 c 0,-3 0,-3 3,-3"
       id="path87"
       inkscape:connector-curvature="0"
       style="fill:#f9f9f9;fill-opacity:0.85" />
    <text
       x="8"
       style="color:#000000;font-size:12px;fill:#000000"
       y="20"
       id="text89" />
  </g>
</svg>
