<?xml version="1.0" encoding="UTF-8" standalone="no"?>
<!-- Created with Inkscape (http://www.inkscape.org/) -->

<svg
   xmlns:dc="http://purl.org/dc/elements/1.1/"
   xmlns:cc="http://creativecommons.org/ns#"
   xmlns:rdf="http://www.w3.org/1999/02/22-rdf-syntax-ns#"
   xmlns:svg="http://www.w3.org/2000/svg"
   xmlns="http://www.w3.org/2000/svg"
   xmlns:sodipodi="http://sodipodi.sourceforge.net/DTD/sodipodi-0.dtd"
   xmlns:inkscape="http://www.inkscape.org/namespaces/inkscape"
   width="106.69627mm"
   height="73.042519mm"
   viewBox="0 0 106.69627 73.042519"
   version="1.1"
   id="svg8"
   inkscape:version="0.92.4 5da689c313, 2019-01-14"
   sodipodi:docname="lips_a.svg">
  <defs
     id="defs2">
    <marker
       inkscape:stockid="Arrow1Sstart"
       orient="auto"
       refY="0"
       refX="0"
       id="Arrow1Sstart"
       style="overflow:visible"
       inkscape:isstock="true">
      <path
         id="path5897"
         d="M 0,0 5,-5 -12.5,0 5,5 Z"
         style="fill:#f7ea63;fill-opacity:1;fill-rule:evenodd;stroke:#0a0101;stroke-width:1.00000003pt;stroke-opacity:1"
         transform="matrix(0.2,0,0,0.2,1.2,0)"
         inkscape:connector-curvature="0" />
    </marker>
  </defs>
  <sodipodi:namedview
     id="base"
     pagecolor="#ffffff"
     bordercolor="#666666"
     borderopacity="1.0"
     inkscape:pageopacity="0.0"
     inkscape:pageshadow="2"
     inkscape:zoom="0.49497475"
     inkscape:cx="-237.05155"
     inkscape:cy="481.23278"
     inkscape:document-units="mm"
     inkscape:current-layer="layer1"
     showgrid="false"
     inkscape:snap-global="false"
     showguides="false"
     inkscape:window-width="1920"
     inkscape:window-height="1144"
     inkscape:window-x="0"
     inkscape:window-y="30"
     inkscape:window-maximized="1"
     fit-margin-top="0"
     fit-margin-left="0"
     fit-margin-right="0"
     fit-margin-bottom="0" />
  <metadata
     id="metadata5">
    <rdf:RDF>
      <cc:Work
         rdf:about="">
        <dc:format>image/svg+xml</dc:format>
        <dc:type
           rdf:resource="http://purl.org/dc/dcmitype/StillImage" />
        <dc:title></dc:title>
      </cc:Work>
    </rdf:RDF>
  </metadata>
  <g
     inkscape:label="Layer 1"
     inkscape:groupmode="layer"
     id="layer1"
     transform="translate(-3.2423887,-8.500559)">
    <g
       id="g6227"
       transform="translate(-1.5119048,5.6696429)">
      <path
         sodipodi:nodetypes="ccccccc"
         inkscape:connector-curvature="0"
         id="path4518"
         d="M 51.785765,36.99237 H 77.273614 C 76.030341,18.024451 60.284432,3.2742471 41.275811,3.2709161 21.348509,3.2708429 5.1942212,19.42513 5.1942935,39.352432 5.1945039,59.279534 21.348709,75.433509 41.275811,75.433436 59.206617,75.411332 74.400585,62.225235 76.947018,44.476152 H 51.785765"
         style="opacity:1;fill:#f7ea63;fill-opacity:1;stroke:#0a0101;stroke-width:0.88;stroke-linecap:butt;stroke-linejoin:miter;stroke-miterlimit:4;stroke-dasharray:none;stroke-dashoffset:0;stroke-opacity:1;paint-order:normal" />
      <circle
         r="1.0394346"
         cy="26.652527"
         cx="40.726936"
         id="path4558"
         style="opacity:1;fill:#000000;fill-opacity:1;stroke:#0a0101;stroke-width:0.88;stroke-linecap:butt;stroke-linejoin:miter;stroke-miterlimit:4;stroke-dasharray:none;stroke-dashoffset:0;stroke-opacity:1;paint-order:normal" />
      <g
         inkscape:export-ydpi="401.20001"
         inkscape:export-xdpi="401.20001"
         inkscape:export-filename="/home/dodo/gits/emotions/text/resources/vocal_tubes.png"
         style="stroke:#0a0101;stroke-width:0.1;stroke-miterlimit:4;stroke-dasharray:none;stroke-opacity:1"
         id="g1597"
         transform="translate(-91.447661,-66.544276)">
        <path
           id="path1006"
           d="m 188.99785,82.339562 c -0.35092,0.294663 -0.43039,0.928651 -0.16995,1.245356 0.0905,0.102088 0.7471,0.633989 1.46055,1.16647 5.83177,4.382237 9.6473,11.074792 10.4292,18.287642 0.15836,1.41531 0.15836,4.31437 0,5.72969 -0.80394,7.42805 -4.982,14.52779 -11.02897,18.72847 -0.91705,0.63399 -1.17749,1.05279 -0.97389,1.57367 0.13573,0.37355 0.37355,0.5551 0.82656,0.62296 0.31729,0.0569 0.50986,-0.0336 1.33643,-0.61136 5.43502,-3.81612 9.54579,-9.85148 11.15367,-16.39612 1.80046,-7.32597 0.60035,-15.093924 -3.36309,-21.650169 -1.87935,-3.12528 -5.07307,-6.488379 -8.08467,-8.526656 -0.74825,-0.509279 -1.14442,-0.554522 -1.58584,-0.169953 z"
           inkscape:connector-curvature="0"
           style="stroke:#0a0101;stroke-width:0.1;stroke-miterlimit:4;stroke-dasharray:none;stroke-opacity:1" />
        <path
           id="path1010"
           d="m 184.49091,89.099982 c -0.26044,0.203596 -0.30569,0.305684 -0.27147,0.758698 0.0342,0.50928 0.0568,0.532481 1.00754,1.267978 1.26798,0.951273 1.91357,1.540019 2.85324,2.5928 2.40081,2.683866 3.95185,6.012742 4.49535,9.636282 0.15835,1.10962 0.16995,3.78189 0,4.9936 -0.28306,2.02668 -1.12123,4.62006 -2.0609,6.30741 -1.20011,2.15138 -3.00057,4.2349 -5.07307,5.84279 -1.14385,0.89443 -1.18909,0.95127 -1.22274,1.40428 -0.0336,0.38515 0.0226,0.53249 0.24884,0.7587 0.40778,0.40777 0.82657,0.36253 1.60789,-0.15835 1.6305,-1.087 3.55567,-3.00057 4.85787,-4.82365 5.31147,-7.42863 4.98258,-17.54055 -0.80336,-24.640294 -0.84919,-1.041761 -2.52493,-2.638044 -3.65776,-3.476208 -1.05278,-0.78132 -1.46055,-0.871807 -1.98143,-0.464036 z"
           inkscape:connector-curvature="0"
           style="stroke:#0a0101;stroke-width:0.1;stroke-miterlimit:4;stroke-dasharray:none;stroke-opacity:1" />
        <path
           id="path1014"
           d="m 179.91667,95.916667 c -0.16995,0.169953 -0.24883,0.407771 -0.24883,0.690833 0,0.464036 0.10208,0.577724 1.22273,1.460552 0.78132,0.600346 1.68735,1.653127 2.26449,2.604398 1.90255,3.1479 1.90255,7.31494 0.0116,10.45125 -0.61137,0.99651 -1.58526,2.09512 -2.51391,2.80857 -0.47564,0.36253 -0.88341,0.72448 -0.91705,0.82657 -0.26044,0.66821 0.19257,1.39268 0.8718,1.39268 1.03074,0 3.5667,-2.5928 4.6653,-4.75578 1.65313,-3.28364 1.72099,-7.30334 0.18098,-10.59858 -0.86079,-1.823078 -2.08352,-3.363096 -3.54408,-4.472722 -1.03074,-0.770299 -1.55162,-0.883408 -1.99303,-0.407771 z"
           inkscape:connector-curvature="0"
           style="stroke:#0a0101;stroke-width:0.1;stroke-miterlimit:4;stroke-dasharray:none;stroke-opacity:1" />
      </g>
      <path
         inkscape:connector-curvature="0"
         id="path6187"
         d="m 52.125663,37.135738 v 7.077893"
         style="fill:none;fill-rule:evenodd;stroke:#000000;stroke-width:0.67374665;stroke-linecap:butt;stroke-linejoin:miter;stroke-miterlimit:4;stroke-dasharray:1.3474933, 0.67374665;stroke-dashoffset:0;stroke-opacity:1" />
    </g>
  </g>
</svg>
